<svg width="25" height="26" viewBox="0 0 25 26" fill="none" xmlns="http://www.w3.org/2000/svg">
<circle cx="12.5" cy="12.5" r="12.5" fill="#C42D32"/>
<path d="M7.867 10.092C7.91233 8.87933 8.309 7.94433 9.057 7.287C9.805 6.62967 10.8193 6.301 12.1 6.301C12.95 6.301 13.6753 6.44833 14.276 6.743C14.888 7.03767 15.347 7.44 15.653 7.95C15.9703 8.46 16.129 9.03233 16.129 9.667C16.129 10.415 15.942 11.027 15.568 11.503C15.194 11.9677 14.7577 12.285 14.259 12.455V12.523C14.905 12.7383 15.415 13.0953 15.789 13.594C16.163 14.0927 16.35 14.733 16.35 15.515C16.35 16.2177 16.1857 16.841 15.857 17.385C15.5397 17.9177 15.0693 18.337 14.446 18.643C13.834 18.949 13.103 19.102 12.253 19.102C10.893 19.102 9.805 18.7677 8.989 18.099C8.18433 17.4303 7.75933 16.4217 7.714 15.073H10.536C10.5473 15.5717 10.689 15.9683 10.961 16.263C11.233 16.5463 11.6297 16.688 12.151 16.688C12.593 16.688 12.933 16.5633 13.171 16.314C13.4203 16.0533 13.545 15.7133 13.545 15.294C13.545 14.75 13.3693 14.359 13.018 14.121C12.678 13.8717 12.1283 13.747 11.369 13.747H10.825V11.384H11.369C11.947 11.384 12.4117 11.2877 12.763 11.095C13.1257 10.891 13.307 10.534 13.307 10.024C13.307 9.616 13.1937 9.29867 12.967 9.072C12.7403 8.84533 12.4287 8.732 12.032 8.732C11.6013 8.732 11.2783 8.86233 11.063 9.123C10.859 9.38367 10.74 9.70667 10.706 10.092H7.867Z" fill="white"/>
</svg>
