<svg width="25" height="26" viewBox="0 0 25 26" fill="none" xmlns="http://www.w3.org/2000/svg">
<circle cx="12.5" cy="12.5" r="12.5" fill="#C42D32"/>
<path d="M7.663 16.671C8.04833 16.365 8.224 16.2233 8.19 16.246C9.30067 15.328 10.1733 14.5743 10.808 13.985C11.454 13.3957 11.998 12.778 12.44 12.132C12.882 11.486 13.103 10.857 13.103 10.245C13.103 9.78033 12.9953 9.41767 12.78 9.157C12.5647 8.89633 12.2417 8.766 11.811 8.766C11.3803 8.766 11.0403 8.93033 10.791 9.259C10.553 9.57633 10.434 10.0297 10.434 10.619H7.629C7.65167 9.65567 7.85567 8.851 8.241 8.205C8.63767 7.559 9.15333 7.083 9.788 6.777C10.434 6.471 11.148 6.318 11.93 6.318C13.2787 6.318 14.293 6.66367 14.973 7.355C15.6643 8.04633 16.01 8.94733 16.01 10.058C16.01 11.2707 15.5963 12.3983 14.769 13.441C13.9417 14.4723 12.8877 15.481 11.607 16.467H16.197V18.83H7.663V16.671Z" fill="white"/>
</svg>
